<svg viewBox="0 0 48 48" xmlns="http://www.w3.org/2000/svg"><path d="M24.813 31.218c.081-.149.315-.176.427-.05.05.054.077.125.07.2l-.687 5.906h2.95a.517.517 0 0 1 .457.755l-4.836 9.04a.254.254 0 0 1-.227.136.27.27 0 0 1-.2-.085.257.257 0 0 1-.071-.2l.688-5.907h-2.95a.517.517 0 0 1-.458-.758ZM23.986 1C37.28 1.18 48.04 12.113 48 25.376c-.02 7.675-3.55 14.73-9.683 19.356-.204.152-.44.227-.678.227a1.125 1.125 0 0 1-.68-2.025c5.567-4.2 8.768-10.602 8.788-17.565.034-12.037-9.73-21.958-21.764-22.12C11.98 3.41 2.215 13.335 2.249 25.369c.02 6.963 3.221 13.365 8.79 17.565.494.376.592 1.083.22 1.578a1.127 1.127 0 0 1-1.576.22C3.55 40.105.021 33.051 0 25.376-.037 12.113 10.723 1.18 23.986 1Zm0 7.323a16.972 16.972 0 0 1 11.899 5.073l2.973-2.415a.565.565 0 0 1 .766.051.56.56 0 0 1 .003.766L37 14.646a16.929 16.929 0 0 1 3.736 10.232A17.047 17.047 0 0 1 35.6 37.484a1.127 1.127 0 0 1-1.592-.02 1.127 1.127 0 0 1 .02-1.592 14.778 14.778 0 0 0 4.454-10.937 14.711 14.711 0 0 0-3.03-8.613l-7.157 7.753a3.896 3.896 0 0 1-3.75 4.931 3.896 3.896 0 0 1-3.891-3.891 3.894 3.894 0 0 1 5.266-3.641l8.204-6.655a14.678 14.678 0 0 0-10.141-4.248c-7.892.122-14.262 6.432-14.462 14.364a14.799 14.799 0 0 0 4.454 10.937c.443.433.454 1.145.02 1.592a1.128 1.128 0 0 1-1.592.02 17.057 17.057 0 0 1-5.131-12.606A16.94 16.94 0 0 1 23.986 8.323Z" fill="#313132" fill-rule="evenodd"/></svg>